<?xml version="1.0" encoding="utf-8"?>
<!-- Generator: Adobe Illustrator 24.2.0, SVG Export Plug-In . SVG Version: 6.00 Build 0)  -->
<svg version="1.1" id="Camada_1" xmlns="http://www.w3.org/2000/svg" xmlns:xlink="http://www.w3.org/1999/xlink" x="0px" y="0px"
	 viewBox="0 0 745.5 169.9" style="enable-background:new 0 0 745.5 169.9;" xml:space="preserve">
<style type="text/css">
	.st0{fill:#2CB4B3;}
	.st1{fill:#3C417D;}
</style>
<g>
	<path class="st0" d="M269,40.5c0-9.3,5-16.9,15.5-16.9c5.2,0,8.7,1.7,11.1,3.2l2.2-3c-2.9-2.2-7.1-3.8-13.3-3.8
		c-12.8,0-19.7,9.3-19.7,20.5c0,11.2,6.9,20.5,19.7,20.5c6.2,0,10.4-1.6,13.3-3.8l-2.2-3c-2.4,1.6-5.9,3.2-11.1,3.2
		C274,57.5,269,49.8,269,40.5"/>
	<polygon class="st0" points="308,20.5 303.9,20.5 303.9,60.5 328.7,60.5 328.7,56.9 308,56.9 	"/>
	<path class="st0" d="M351.5,26.4l7.5,18.2h-15.1L351.5,26.4z M342.4,48.3h18.1l5.1,12.3h4.4l-16.8-40h-3.4l-16.8,40h4.4L342.4,48.3
		z"/>
	<g>
		<path class="st0" d="M401.4,23.3c-3.1-2-7.2-3.3-13.1-3.3c-8.9,0-13.6,4.2-13.6,10.2c0,6,4.1,9.4,13.8,11.5
			c8.3,1.9,10.8,4.1,10.8,8.4c0,4.6-3,7.3-9.9,7.3c-5.6,0-10.1-1.4-13.7-3.8l-2.1,3.1c3.8,3,9.6,4.3,15.8,4.3
			c8.9,0,14.1-3.7,14.1-10.9c0-7-4.7-10.2-14.3-12.4c-7.5-1.7-10.4-3.5-10.4-7.6c0-4.6,3.8-6.6,9.5-6.6c4.2,0,8.2,1.1,11,2.8
			L401.4,23.3z"/>
	</g>
	<g>
		<path class="st0" d="M435.8,23.3c-3.1-2-7.2-3.3-13.1-3.3c-8.9,0-13.6,4.2-13.6,10.2c0,6,4.1,9.4,13.8,11.5
			c8.3,1.9,10.8,4.1,10.8,8.4c0,4.6-3,7.3-9.9,7.3c-5.6,0-10.1-1.4-13.7-3.8l-2.1,3.1c3.8,3,9.6,4.3,15.8,4.3
			c8.9,0,14.1-3.7,14.1-10.9c0-7-4.7-10.2-14.3-12.4c-7.5-1.7-10.4-3.5-10.4-7.6c0-4.6,3.8-6.6,9.5-6.6c4.2,0,8.2,1.1,11,2.8
			L435.8,23.3z"/>
	</g>
	<polygon class="st0" points="448.1,38.3 448.1,24.1 470.5,24.1 470.5,20.5 444,20.5 444,60.5 470.8,60.5 470.8,56.9 448.1,56.9 
		448.1,41.9 469.1,41.9 469.1,38.3 	"/>
	<path class="st0" d="M73.6,161.5C-58,157,1.3,0,138.2,0l-11.2,30.1C5.2,30.1-41.5,153.8,75.8,157.3c4.7,0.1,9.5,0.1,14.2,0.1
		c40.1,0.4,87.6-19.7,99.4-52.1c9.5-26.2-14.3-40-48.9-40h-13.2l24-64.9h11.7l-14.9,41c100.3,0,70.3,121.1-58.9,120.2
		C83.9,161.6,78.6,161.7,73.6,161.5"/>
	<path class="st1" d="M168.7,17.3c49.3,1,75.4,40.8,61.7,80C220,127.2,187.8,153,151,164.1c-14.3,4.3-26.5,5.8-40.3,5.8
		c17.2-2.4,26.2-4.7,41.9-10.5c30.5-11.4,57-34.7,65.7-59.6c12-34.5-12.2-65.4-55.5-66.2L168.7,17.3z"/>
	<path class="st1" d="M83.2,151.1c-108.1,0-67.1-112.8,41-112.8l-10.1,27c-65.8,0-100,41.7-81.2,66
		C46.6,148.9,68.4,149.4,83.2,151.1"/>
	<g>
		<path class="st1" d="M270.4,119.4h-4.3l16.3-40h3.3l16.3,40h-4.3l-4.9-12.2h-17.6L270.4,119.4z M276.8,103.5h14.6l-7.3-18.2
			L276.8,103.5z"/>
		<path class="st1" d="M319.5,119.4h-12.4v-40h12.4c13.3,0,18.9,8.5,18.9,20S332.8,119.4,319.5,119.4z M311.2,115.8h8.4
			c10.9,0,14.8-7.2,14.8-16.4c0-9.1-3.9-16.4-14.8-16.4h-8.4V115.8z"/>
		<path class="st1" d="M364.4,113.5L378,79.5h5.8v40h-4V85.3l-13.6,34.1h-3.6l-13.6-34.1v34.1h-4v-40h5.8L364.4,113.5z"/>
		<path class="st1" d="M391.3,79.5h4v40h-4V79.5z"/>
		<path class="st1" d="M402.9,79.5h4.9l21.6,34.2V79.5h4v40h-4.9l-21.6-34.2v34.2h-4V79.5z"/>
		<path class="st1" d="M441,79.5h4v40h-4V79.5z"/>
		<path class="st1" d="M475.8,85.3c-2.7-1.8-6.6-2.8-10.6-2.8c-5.4,0-9.2,2-9.2,6.6c0,4.1,2.8,5.9,10,7.6
			c9.3,2.1,13.8,5.3,13.8,12.4c0,7.2-5,10.9-13.7,10.9c-6,0-11.6-1.3-15.3-4.3l2.1-3.1c3.4,2.4,7.9,3.8,13.2,3.8
			c6.7,0,9.6-2.6,9.6-7.3c0-4.3-2.4-6.5-10.5-8.4C456,98.5,452,95.2,452,89.1c0-6,4.6-10.2,13.2-10.2c5.8,0,9.7,1.3,12.7,3.3
			L475.8,85.3z"/>
		<path class="st1" d="M515.5,79.5v3.6h-13.6v36.3h-4V83.1h-13.6v-3.6H515.5z"/>
		<path class="st1" d="M521.4,119.4v-40h16.9c7.3,0,11.9,4.5,11.9,11.5c0,6.3-4.3,10.5-9.8,11.3l9.8,17.2h-4.4l-9.7-16.9h-10.7v16.9
			H521.4z M525.4,83.1v15.8h12.9c5.4,0,7.8-3.3,7.8-7.9s-2.4-7.9-7.8-7.9H525.4z"/>
		<path class="st1" d="M558.6,119.4h-4.3l16.3-40h3.3l16.3,40H586l-4.9-12.2h-17.6L558.6,119.4z M565,103.5h14.6l-7.3-18.2
			L565,103.5z"/>
		<path class="st1" d="M607.7,119.4h-12.4v-40h12.4c13.3,0,18.9,8.5,18.9,20S621,119.4,607.7,119.4z M599.4,115.8h8.4
			c10.9,0,14.8-7.2,14.8-16.4c0-9.1-3.9-16.4-14.8-16.4h-8.4V115.8z"/>
		<path class="st1" d="M632.1,99.4c0-11.2,6.7-20.5,19.1-20.5c12.4,0,19.1,9.3,19.1,20.5s-6.7,20.5-19.1,20.5
			C638.7,120,632.1,110.7,632.1,99.4z M666.1,99.4c0-9.3-4.9-16.9-15-16.9c-10.1,0-15,7.6-15,16.9s4.9,16.9,15,16.9
			C661.2,116.4,666.1,108.7,666.1,99.4z"/>
		<path class="st1" d="M676.7,119.4v-40h16.9c7.3,0,11.9,4.5,11.9,11.5c0,6.3-4.3,10.5-9.8,11.3l9.8,17.2h-4.4l-9.7-16.9h-10.7v16.9
			H676.7z M680.7,83.1v15.8h12.9c5.4,0,7.8-3.3,7.8-7.9s-2.4-7.9-7.8-7.9H680.7z"/>
		<path class="st1" d="M713.9,119.4h-4.3l16.3-40h3.3l16.3,40h-4.3l-4.9-12.2h-17.6L713.9,119.4z M720.2,103.5h14.6l-7.3-18.2
			L720.2,103.5z"/>
	</g>
</g>
</svg>
