<?xml version="1.0" encoding="utf-8"?>
<!-- Generator: Adobe Illustrator 24.2.0, SVG Export Plug-In . SVG Version: 6.00 Build 0)  -->
<svg version="1.1" id="Camada_1" xmlns="http://www.w3.org/2000/svg" xmlns:xlink="http://www.w3.org/1999/xlink" x="0px" y="0px"
	 viewBox="0 0 772 167.8" style="enable-background:new 0 0 772 167.8;" xml:space="preserve">
<style type="text/css">
	.st0{fill:none;stroke:#FECB84;stroke-width:5.0766;stroke-miterlimit:10;}
	.st1{fill:none;stroke:#FECB84;stroke-width:3.4602;stroke-miterlimit:10;}
	.st2{fill-rule:evenodd;clip-rule:evenodd;fill:#2366AF;}
	.st3{fill:#ED7923;}
	.st4{fill-rule:evenodd;clip-rule:evenodd;fill:url(#SVGID_1_);}
	.st5{fill-rule:evenodd;clip-rule:evenodd;fill:url(#SVGID_2_);}
	.st6{fill-rule:evenodd;clip-rule:evenodd;fill:url(#SVGID_3_);}
	.st7{fill-rule:evenodd;clip-rule:evenodd;fill:#ED7923;}
	.st8{fill-rule:evenodd;clip-rule:evenodd;fill:url(#SVGID_4_);}
	.st9{fill-rule:evenodd;clip-rule:evenodd;fill:url(#SVGID_5_);}
	.st10{fill-rule:evenodd;clip-rule:evenodd;fill:url(#SVGID_6_);}
	.st11{fill-rule:evenodd;clip-rule:evenodd;fill:url(#SVGID_7_);}
	.st12{fill-rule:evenodd;clip-rule:evenodd;fill:url(#SVGID_8_);}
	.st13{fill:#30408E;}
</style>
<rect x="735.6" y="103.2" class="st0" width="0" height="0"/>
<g>
	<rect x="630.8" y="90.4" class="st1" width="0" height="0"/>
	<rect x="211.4" y="149.7" class="st2" width="48.2" height="1.4"/>
	<rect x="698.7" y="149.7" class="st2" width="48.2" height="1.4"/>
	<g>
		<path class="st3" d="M300.3,159.7c-0.2-0.9-0.3-1.7-0.6-2.5l-2.4-6.9h-8.1l-2.9,6.2c-0.2,0.5-0.6,1.5-1.2,3.2h-3l8.7-18.4
			c0.2-0.4,0.5-1.2,1-2.5h4.1c0.1,0.9,0.4,1.7,0.6,2.2l6.7,18.7H300.3z M290.2,148.1h6.3l-2.7-7.6L290.2,148.1z"/>
		<path class="st3" d="M317.1,157.4c-1.5,1.8-3.2,2.7-5.2,2.7c-4.4,0-6.8-2.6-6.8-7.1c0-5.7,3.4-9.4,9.3-9.4c1.2,0,2.3,0.2,3.4,0.5
			l0-1.4c0-1.2,0.1-1.9,0.1-2c0-0.2,0-0.8,0-1.9h2.6c-0.4,5.1-0.8,12-0.9,20.9H317L317.1,157.4z M314.2,145.5
			c-4.2,0-6.6,2.6-6.6,7.2c0,3.4,1.7,5.4,4.4,5.4c3.3,0,5.2-2.1,5.4-6.4l0.2-5.6C316.7,145.7,315.6,145.5,314.2,145.5z"/>
		<path class="st3" d="M344.2,149.5c0-2.7-0.7-4-3-4c-4.1,0-4.8,3.8-4.8,11.6c0,0.8,0,1.6,0,2.5h-2.8c0.3-3.8,0.5-7.1,0.5-9.8
			c0-2.8-0.3-4.3-3-4.3c-4.6,0-4.8,4.6-4.8,14.1h-2.8c0.4-5,0.6-10,0.6-14.8c0-0.3,0-0.7,0-1h2.3l-0.1,2c1.4-1.8,3-2.5,5.2-2.5
			c2.7,0,4.2,1,4.7,2.9c1.3-2,3.1-2.9,5.5-2.9c3.4,0,5,1.8,5,5.3c0,1.8-0.3,5-0.3,9.6c0,0.4,0,0.9,0,1.3h-2.8
			C344.1,155.7,344.2,152.2,344.2,149.5z"/>
		<path class="st3" d="M351,144.8c0-0.3,0-0.6,0-0.9h3c-0.4,4.9-0.7,9.8-0.7,14.9c0,0.3,0,0.6,0,0.9h-3
			C350.8,154.8,351,149.8,351,144.8z M351.4,138.7h2.7l-0.1,2.7h-2.7L351.4,138.7z"/>
		<path class="st3" d="M369.7,149.7c0-2.9-0.7-4.2-3.6-4.2c-5.2,0-6,4.2-6,12.9c0,0.4,0,0.8,0,1.2h-2.8c0.5-5,0.7-10.2,0.7-15.7h2.5
			v2.5c1.5-2,3.4-2.9,6.1-2.9c3.9,0,5.6,1.6,5.6,5c0,1.7-0.2,4.8-0.2,9.5c0,0.5,0,1.1,0,1.6h-2.9
			C369.6,154.8,369.7,151.4,369.7,149.7z"/>
		<path class="st3" d="M376.5,144.8c0-0.3,0-0.6,0-0.9h3c-0.4,4.9-0.7,9.8-0.7,14.9c0,0.3,0,0.6,0,0.9h-3
			C376.3,154.8,376.5,149.8,376.5,144.8z M376.9,138.7h2.7l-0.1,2.7h-2.7L376.9,138.7z"/>
		<path class="st3" d="M387.2,158.1c2.1,0,3.3-0.8,3.3-2.1c0-1-0.6-1.5-1.5-2.2l-3.4-2.7c-1.6-1.3-2.4-2.4-2.4-3.8
			c0-2.1,1.9-3.7,4.9-3.7c1.2,0,2.6,0.2,4.1,0.6l0.2,2.3c-1.8-0.6-3.2-0.9-4.1-0.9c-1.5,0-2.5,0.8-2.5,1.8c0,0.7,0.5,1.3,1.6,2.1
			l3.2,2.4c1.6,1.2,2.6,2.1,2.6,4c0,2.7-2,4.3-5.9,4.3c-1.5,0-3.2-0.3-4.9-0.9l-0.1-2.6C384,157.6,385.6,158.1,387.2,158.1z"/>
		<path class="st3" d="M394.8,145.9l0.1-2h2.2l0.1-2.6l2.6-0.5l-0.1,3.1h4.6l-0.1,2h-4.7l-0.4,9.2c0,0.3,0,0.5,0,0.7
			c0,1.5,0.6,2.1,2.4,2.1c0.9,0,1.8-0.2,2.7-0.4l-0.4,2.3c-1.2,0.2-2.4,0.3-3.4,0.3c-2.7,0-3.9-1.1-3.9-3.5c0-0.5,0.1-1.1,0.1-1.9
			l0.4-8.8H394.8z"/>
		<path class="st3" d="M406.9,145c0-0.4,0-0.7,0-1.1h2.7l-0.1,2.2c1-1.9,2.2-2.7,4-2.7c0.4,0,0.9,0.1,1.3,0.2l0.2,2.3
			c-0.8-0.1-1.3-0.1-1.4-0.1c-4.5,0-4.5,4.4-4.6,13.8h-2.7C406.7,154.7,406.9,149.8,406.9,145z"/>
		<path class="st3" d="M421.1,160.1c-3.2,0-5.2-1.6-5.2-4.1c0-2.3,1.2-3.5,3.7-4.4l3.6-1.3c2.4-0.9,3.4-1.5,3.4-2.8
			c0-1.4-1.1-2.1-3.3-2.1c-1.6,0-3.4,0.4-5.4,1.3l0.3-2.4c1.8-0.6,3.7-0.8,5.5-0.8c4.1,0,5.4,1.3,5.4,4.2c0,0.4,0,0.9,0,1.3
			l-0.3,8.1c0,0.3,0,1.2,0,2.7H426c0.2-1.4,0.3-2.7,0.3-3.9l0.3-5c-0.6,0.5-1.2,0.8-1.9,1.1l-3.4,1.3c-1.6,0.6-2.5,1.3-2.5,2.8
			c0,1.4,1,2.2,2.9,2.2c0.6,0,1.8-0.1,3.3-0.5l-0.3,2.1C423.3,159.9,422.2,160.1,421.1,160.1z"/>
		<path class="st3" d="M444.4,157.4c-1.5,1.8-3.2,2.7-5.2,2.7c-4.4,0-6.8-2.6-6.8-7.1c0-5.7,3.4-9.4,9.3-9.4c1.2,0,2.3,0.2,3.4,0.5
			l0-1.4c0-1.2,0.1-1.9,0.1-2c0-0.2,0-0.8,0-1.9h2.6c-0.4,5.1-0.8,12-0.9,20.9h-2.5L444.4,157.4z M441.5,145.5
			c-4.2,0-6.6,2.6-6.6,7.2c0,3.4,1.7,5.4,4.4,5.4c3.3,0,5.2-2.1,5.4-6.4l0.2-5.6C443.9,145.7,442.8,145.5,441.5,145.5z"/>
		<path class="st3" d="M458.7,143.5c4.8,0,7.5,2.8,7.5,8c0,5.5-3.2,8.6-7.8,8.6c-5.1,0-7.8-2.8-7.8-7.9
			C450.5,146.8,453.6,143.5,458.7,143.5z M453.1,152.3c0,3.8,1.7,5.7,5.1,5.7c3.5,0,5.4-2.3,5.4-6.6c0-3.9-1.7-5.8-5.1-5.8
			C455,145.6,453.1,147.9,453.1,152.3z"/>
		<path class="st3" d="M469.8,145c0-0.4,0-0.7,0-1.1h2.7l-0.1,2.2c1-1.9,2.2-2.7,4-2.7c0.4,0,0.9,0.1,1.3,0.2l0.2,2.3
			c-0.8-0.1-1.3-0.1-1.4-0.1c-4.5,0-4.5,4.4-4.6,13.8h-2.7C469.6,154.7,469.8,149.8,469.8,145z"/>
		<path class="st3" d="M484,160.1c-3.2,0-5.2-1.6-5.2-4.1c0-2.3,1.2-3.5,3.7-4.4l3.6-1.3c2.4-0.9,3.4-1.5,3.4-2.8
			c0-1.4-1.1-2.1-3.3-2.1c-1.6,0-3.4,0.4-5.4,1.3l0.3-2.4c1.8-0.6,3.7-0.8,5.5-0.8c4.1,0,5.4,1.3,5.4,4.2c0,0.4,0,0.9,0,1.3
			l-0.3,8.1c0,0.3,0,1.2,0,2.7h-2.9c0.2-1.4,0.3-2.7,0.3-3.9l0.3-5c-0.6,0.5-1.2,0.8-1.9,1.1l-3.4,1.3c-1.6,0.6-2.5,1.3-2.5,2.8
			c0,1.4,1,2.2,2.9,2.2c0.6,0,1.8-0.1,3.3-0.5l-0.3,2.1C486.2,159.9,485,160.1,484,160.1z"/>
		<path class="st3" d="M516.2,157.4c-1.5,1.8-3.2,2.7-5.2,2.7c-4.4,0-6.8-2.6-6.8-7.1c0-5.7,3.4-9.4,9.3-9.4c1.2,0,2.3,0.2,3.4,0.5
			l0-1.4c0-1.2,0.1-1.9,0.1-2c0-0.2,0-0.8,0-1.9h2.6c-0.4,5.1-0.8,12-0.9,20.9h-2.5L516.2,157.4z M513.3,145.5
			c-4.2,0-6.6,2.6-6.6,7.2c0,3.4,1.7,5.4,4.4,5.4c3.3,0,5.2-2.1,5.4-6.4l0.2-5.6C515.8,145.7,514.7,145.5,513.3,145.5z"/>
		<path class="st3" d="M524.9,152.6c0,3.6,1.6,5.5,4.9,5.5c1.8,0,3.2-0.5,4.6-1.1l-0.3,2.5c-1.7,0.4-3.1,0.7-4.4,0.7
			c-4.6,0-7.4-2.9-7.4-7.8c0-5.4,3.2-8.8,7.7-8.8c4,0,6.1,2.3,6.1,6.4c0,0.3,0,0.7-0.1,1.3H525C525,151.8,524.9,152.2,524.9,152.6z
			 M533.6,149.2c0-2.3-1.3-3.5-3.7-3.5c-2.4,0-4.1,1.3-4.6,3.5H533.6z"/>
		<path class="st3" d="M562.5,153.8c0,4.1-2.6,5.9-7.6,5.9h-7.4c0.6-4.8,1-11.8,1.1-20.9h7.4c4.2,0,6.4,1.1,6.4,4.7
			c0,2.9-1.6,4.9-4.6,5.4C561,149.1,562.5,150.8,562.5,153.8z M554.6,157.6c3.6,0,5.4-1.4,5.4-4c0-2.4-1.5-3.6-4.5-3.6h-4.6
			l-0.2,2.6c0,0.6-0.1,1.6-0.1,3c0,0.2,0,0.9,0,2H554.6z M553.8,147.9c4,0,6.1-1.5,6.1-4c0-2.3-1.4-2.9-4.1-2.9h-4.3
			c-0.2,1.7-0.2,2.8-0.3,3.3l-0.3,3.7H553.8z"/>
		<path class="st3" d="M567.8,152.6c0,3.6,1.6,5.5,4.9,5.5c1.8,0,3.2-0.5,4.6-1.1l-0.3,2.5c-1.7,0.4-3.1,0.7-4.4,0.7
			c-4.6,0-7.4-2.9-7.4-7.8c0-5.4,3.2-8.8,7.7-8.8c4,0,6.1,2.3,6.1,6.4c0,0.3,0,0.7-0.1,1.3h-11.2
			C567.8,151.8,567.8,152.2,567.8,152.6z M576.4,149.2c0-2.3-1.3-3.5-3.7-3.5c-2.4,0-4.1,1.3-4.6,3.5H576.4z"/>
		<path class="st3" d="M593.7,149.7c0-2.9-0.7-4.2-3.6-4.2c-5.2,0-6,4.2-6,12.9c0,0.4,0,0.8,0,1.2h-2.8c0.5-5,0.7-10.2,0.7-15.7h2.5
			v2.5c1.5-2,3.4-2.9,6.1-2.9c3.9,0,5.6,1.6,5.6,5c0,1.7-0.2,4.8-0.2,9.5c0,0.5,0,1.1,0,1.6h-2.9
			C593.6,154.8,593.7,151.4,593.7,149.7z"/>
		<path class="st3" d="M601.9,152.6c0,3.6,1.6,5.5,4.9,5.5c1.8,0,3.2-0.5,4.6-1.1l-0.3,2.5c-1.7,0.4-3.1,0.7-4.4,0.7
			c-4.6,0-7.4-2.9-7.4-7.8c0-5.4,3.2-8.8,7.7-8.8c4,0,6.1,2.3,6.1,6.4c0,0.3,0,0.7-0.1,1.3H602C601.9,151.8,601.9,152.2,601.9,152.6
			z M610.5,149.2c0-2.3-1.3-3.5-3.7-3.5c-2.4,0-4.1,1.3-4.6,3.5H610.5z"/>
		<path class="st3" d="M623,145.9h-3.6c-0.2,4.3-0.4,8.9-0.5,13.7h-2.7c0.4-4.6,0.6-9.2,0.6-13.7h-2.1l0.1-2h2.1v-1.1
			c0-3.1,1.4-4.5,4.4-4.5c0.9,0,1.7,0.1,2.4,0.3l0.1,2c-0.7-0.1-1.3-0.2-1.9-0.2c-2,0-2.4,0.9-2.4,3v0.6h3.6L623,145.9z"/>
		<path class="st3" d="M625.2,144.8c0-0.3,0-0.6,0-0.9h3c-0.4,4.9-0.7,9.8-0.7,14.9c0,0.3,0,0.6,0,0.9h-3
			C625,154.8,625.2,149.8,625.2,144.8z M628.1,136.4h2.8l-4.4,5.4h-1.6L628.1,136.4z"/>
		<path class="st3" d="M638.9,160.1c-4.7,0-7.5-2.9-7.5-7.9c0-5.4,3.1-8.7,8.1-8.7c1.3,0,2.7,0.3,4.2,0.6v2.4
			c-1.5-0.5-2.9-0.9-4.3-0.9c-3.5,0-5.5,2.3-5.5,6.6c0,3.8,1.7,5.8,5,5.8c1.3,0,2.8-0.4,4.6-1l-0.5,2.4
			C641.5,159.9,640.2,160.1,638.9,160.1z"/>
		<path class="st3" d="M646.7,144.8c0-0.3,0-0.6,0-0.9h3c-0.4,4.9-0.7,9.8-0.7,14.9c0,0.3,0,0.6,0,0.9h-3
			C646.5,154.8,646.7,149.8,646.7,144.8z M647.1,138.7h2.7l-0.1,2.7h-2.7L647.1,138.7z"/>
		<path class="st3" d="M661,143.5c4.8,0,7.5,2.8,7.5,8c0,5.5-3.2,8.6-7.8,8.6c-5.1,0-7.8-2.8-7.8-7.9
			C652.9,146.8,655.9,143.5,661,143.5z M655.4,152.3c0,3.8,1.7,5.7,5.1,5.7c3.5,0,5.4-2.3,5.4-6.6c0-3.9-1.7-5.8-5.1-5.8
			C657.3,145.6,655.4,147.9,655.4,152.3z"/>
		<path class="st3" d="M675.7,158.1c2.1,0,3.3-0.8,3.3-2.1c0-1-0.6-1.5-1.5-2.2l-3.4-2.7c-1.6-1.3-2.4-2.4-2.4-3.8
			c0-2.1,1.9-3.7,4.9-3.7c1.2,0,2.6,0.2,4.1,0.6l0.2,2.3c-1.8-0.6-3.2-0.9-4.1-0.9c-1.5,0-2.5,0.8-2.5,1.8c0,0.7,0.5,1.3,1.6,2.1
			l3.2,2.4c1.6,1.2,2.6,2.1,2.6,4c0,2.7-2,4.3-5.9,4.3c-1.5,0-3.2-0.3-4.9-0.9l-0.1-2.6C672.5,157.6,674.1,158.1,675.7,158.1z"/>
	</g>
	<g>
		
			<radialGradient id="SVGID_1_" cx="143.1622" cy="-36.635" r="48.7344" gradientTransform="matrix(0.7326 -0.6806 0.6806 0.7326 -50.6803 164.2983)" gradientUnits="userSpaceOnUse">
			<stop  offset="1.834860e-02" style="stop-color:#CDDCEB"/>
			<stop  offset="0.5" style="stop-color:#217FBE"/>
			<stop  offset="1" style="stop-color:#2E3690"/>
		</radialGradient>
		<path class="st4" d="M0,52.1c12.3,17.5,33.2,26.8,54.2,24.8c-0.1-2-0.4-3.9-0.7-6.1c-0.1-3.6-0.1-7.4,0.4-11.1
			c0.5-4.4,1.6-8.7,3.1-12.9c1-1.6,2.1-3.1,3.3-4.5C44.5,57.6,20.4,62.1,0,52.1z"/>
		
			<radialGradient id="SVGID_2_" cx="146.9579" cy="-19.8632" r="36.8803" gradientTransform="matrix(0.7326 -0.6806 0.6806 0.7326 -50.6803 164.2983)" gradientUnits="userSpaceOnUse">
			<stop  offset="1.834860e-02" style="stop-color:#CDDCEB"/>
			<stop  offset="0.5" style="stop-color:#217FBE"/>
			<stop  offset="1" style="stop-color:#2E3690"/>
		</radialGradient>
		<path class="st5" d="M53.9,59.6c0.5-4.4,1.6-8.7,3.1-12.9c1-1.6,2.1-3.1,3.3-4.5C44.5,57.6,20.4,62.1,0,52.1
			C15.1,65.2,36.2,68.2,53.9,59.6L53.9,59.6z"/>
		<g>
			<g>
				<linearGradient id="SVGID_3_" gradientUnits="userSpaceOnUse" x1="43.5355" y1="101.5146" x2="185.412" y2="101.5146">
					<stop  offset="5.786250e-02" style="stop-color:#FFFFFF;stop-opacity:0"/>
					<stop  offset="0.7576" style="stop-color:#F89623;stop-opacity:0.9703"/>
					<stop  offset="0.7961" style="stop-color:#F89520;stop-opacity:0.9991"/>
					<stop  offset="0.8972" style="stop-color:#F89623;stop-opacity:0.9807"/>
					<stop  offset="1" style="stop-color:#F7941D"/>
					<stop  offset="1" style="stop-color:#F99F39;stop-opacity:0.2872"/>
					<stop  offset="1" style="stop-color:#FFF2E5;stop-opacity:2.699900e-02"/>
				</linearGradient>
				<path class="st6" d="M157.2,36.8c-0.1,1.5,0.1,2.8-0.2,4.1c-0.7,7.8-3.9,14.7-8.9,20.1c7.7,9,12.4,19.8,13.8,31.1
					c1,8,0.9,18.6-1.8,23.9c-4.8,7.5-12.7,13.4-20.6,17.7c-13,7.1-28.4,9.7-43.7,6.6c-26.9-5.1-47.5-26.5-52.2-53.2
					c-0.6,27.8,13.1,53,35.4,67.7c7.4,4.9,15.8,8.6,25,10.8c30.5,3.9,60.8-12,74.4-40.5C193.1,94.3,184.1,57.3,157.2,36.8z"/>
			</g>
		</g>
		<g>
			<g>
				<path class="st7" d="M157.2,36.8c26.9,20.5,35.9,57.6,21.2,88.4c-13.7,28.5-44,44.4-74.4,40.5c2,0.6,4.2,1.1,6.5,1.2
					c40.6,6.3,79.2-19.9,88.3-60.2c8.9-39-13.1-78.4-50.7-91.5C153.5,20.9,156.7,28.6,157.2,36.8L157.2,36.8z"/>
			</g>
		</g>
		<g>
			<g>
				<linearGradient id="SVGID_4_" gradientUnits="userSpaceOnUse" x1="43.5355" y1="123.4659" x2="160.1803" y2="123.4659">
					<stop  offset="0" style="stop-color:#F7941D"/>
					<stop  offset="1" style="stop-color:#FFFFFF;stop-opacity:0"/>
				</linearGradient>
				<path class="st8" d="M95.8,140.3c-26.9-5.1-47.5-26.5-52.2-53.2c-0.6,27.8,13.1,53,35.4,67.7c25,10.8,54.6,3.3,71.4-19.1
					c4.7-6.1,6.5-13.5,9.8-19.9c-3.4,6.5-12.7,13.4-20.6,17.7C126.5,140.8,111.1,143.4,95.8,140.3L95.8,140.3z"/>
			</g>
		</g>
		
			<radialGradient id="SVGID_5_" cx="195.9544" cy="67.4638" r="65.8048" gradientTransform="matrix(0.7326 -0.6806 0.6806 0.7326 -50.6803 164.2983)" gradientUnits="userSpaceOnUse">
			<stop  offset="1.834860e-02" style="stop-color:#CDDCEB"/>
			<stop  offset="0.5" style="stop-color:#217FBE"/>
			<stop  offset="1" style="stop-color:#2E3690"/>
		</radialGradient>
		<path class="st9" d="M124.9,35.6c-10.9-5.2-23.6-4.6-34,1.5c-11,6.3-17.9,17.7-18.2,30.5c1.8,18.1,12.1,34.2,28.3,43.2
			c7.5,4.2,15.5,6.3,23.7,6.6c11.8,0.8,23.7-2.6,33.8-9.5c-19.4,11.5-44.2,6-57.1-12.5c-12.5-18.5-8.8-43.8,8.8-57.6
			C114.4,34.3,119.8,33.5,124.9,35.6L124.9,35.6z"/>
		
			<radialGradient id="SVGID_6_" cx="177.1986" cy="-32.1221" r="74.2198" gradientTransform="matrix(0.7326 -0.6806 0.6806 0.7326 -50.6803 164.2983)" gradientUnits="userSpaceOnUse">
			<stop  offset="1.834860e-02" style="stop-color:#CDDCEB"/>
			<stop  offset="0.5" style="stop-color:#217FBE"/>
			<stop  offset="1" style="stop-color:#2E3690"/>
		</radialGradient>
		<path class="st10" d="M118,10.8c-4.6,0-9.3,0.8-13.6,1.9c-7.7,1.8-14.8,4.5-21.5,8.5c-6.6,3.7-12.4,8.3-17.6,13.8
			c-1.8,2.3-3.9,4.7-5.8,6.8c-1.2,1.4-2.3,2.9-3.3,4.5c-1.5,4.2-2.5,8.5-3.1,12.9c-0.5,3.7-0.5,7.6-0.4,11.1
			c0.3,2.2,0.6,4.1,0.7,6.1c3.1,17.2,13.1,33,28.9,42.3c24.7,15,56.6,10.4,76.1-10.9c-10.1,6.9-21.9,10.3-33.8,9.5
			c-8.2-0.3-16.2-2.4-23.7-6.6c-16.2-9-26.5-25.1-28.3-43.2c0.3-12.8,7.2-24.2,18.2-30.5c10.4-6.1,23.1-6.8,34-1.5
			c0.5,0.2,1.1,0.4,1.6,1c5.3,3,8,9,6.7,14.9c7.5-6.2,10.3-16.7,6.9-25.7C136.6,16.5,127.9,10.6,118,10.8z"/>
		
			<radialGradient id="SVGID_7_" cx="182.1839" cy="-43.4577" r="19.1829" gradientTransform="matrix(0.7326 -0.6806 0.6806 0.7326 -50.6803 164.2983)" gradientUnits="userSpaceOnUse">
			<stop  offset="1.834860e-02" style="stop-color:#CDDCEB"/>
			<stop  offset="0.5" style="stop-color:#217FBE"/>
			<stop  offset="1" style="stop-color:#2E3690"/>
		</radialGradient>
		<path class="st11" d="M71.8,25.8c6-5.5,6.5-15,0.8-21.1c-5.5-6-15.2-6.3-21.1-0.8c-6,5.5-6.3,15.2-0.8,21.1
			C56.4,31.2,65.8,31.4,71.8,25.8L71.8,25.8z"/>
		
			<radialGradient id="SVGID_8_" cx="138.6452" cy="-10.9533" r="74.2144" gradientTransform="matrix(0.7326 -0.6806 0.6806 0.7326 -50.6803 164.2983)" gradientUnits="userSpaceOnUse">
			<stop  offset="1.834860e-02" style="stop-color:#CDDCEB"/>
			<stop  offset="0.5" style="stop-color:#217FBE"/>
			<stop  offset="1" style="stop-color:#1A6EA4"/>
		</radialGradient>
		<path class="st12" d="M124.7,117.4c-23.5,3.6-46.6-8.9-57-30.5C56.8,64.1,63.2,37,82.9,21.2c-6.6,3.7-12.4,8.3-17.6,13.8
			c-1.8,2.3-3.9,4.7-5.8,6.8c-1.2,1.4-2.3,2.9-3.3,4.5c-1.5,4.2-2.5,8.5-3.1,12.9c-0.5,3.7-0.5,7.6-0.4,11.1
			c0.3,2.2,0.6,4.1,0.7,6.1c3.1,17.2,13.1,33,28.9,42.3c24.7,15,56.6,10.4,76.1-10.9C148.3,114.8,136.5,118.2,124.7,117.4
			L124.7,117.4z"/>
		<path class="st13" d="M707.3,52.1c-2.4,2.6-4,5.9-4.9,9.9l-14.8,65.6h-18.1l16.7-74.5c0.8-3.6,2.1-7.2,3.9-10.5
			c1.8-3.4,3.9-6.4,6.4-9c2.5-2.6,5.3-4.7,8.5-6.3c3.2-1.6,6.7-2.3,10.4-2.3H772l-5.3,23.2h-49.7C712.9,48.2,709.7,49.5,707.3,52.1z
			"/>
		<path class="st13" d="M287.9,103.4h-27.2c0,0,0,0,0,0c-0.3,0-0.7,0-1,0c-15.2,0-24.7-12.4-21.2-27.6c3.4-14.9,18-27,32.8-27.6
			c0,0,0,0,0,0h29.4l5.3-23.2h-44.1c-11.2,0-21,5-29.5,15.1c-8.5,9.7-14.3,21.7-17.4,35.9c-3.1,13.9-2.8,25.9,1.1,36.2
			c4.2,10.2,11.7,15.4,22.7,15.4h43.9L287.9,103.4z"/>
		<path class="st13" d="M361.2,24.8c-22.7,0-46.4,23-52.9,51.4c-6.6,28.4,6.5,51.4,29.2,51.4s46.4-23,52.9-51.4
			S383.9,24.8,361.2,24.8z M343,104.5c-12.3,0-19.4-12.5-15.8-27.9c3.6-15.4,16.4-27.9,28.7-27.9c12.3,0,19.4,12.5,15.8,27.9
			S355.3,104.5,343,104.5z"/>
		<path class="st13" d="M488,61.7c4.4-20.5-2.7-36.9-15.9-36.9c-6.4,0-13,3.8-18.8,10c-2.9-6.2-7.9-10-14.2-10
			c-13.3,0-27.9,16.4-33,36.9h0l-15.2,65.9h18l6.5-28.1c0,0,0,0,0,0l9.4-40.7h0c1.9-7.1,6.3-12.7,10-12.7c3.8,0,5.5,5.6,4.2,12.7h0
			l-9.2,40.1l-1,4.3h17l1-4.4l9.2-39.9h0c1.9-7.1,6.3-12.7,10-12.7c3.8,0,5.5,5.6,4.2,12.7h0l-0.7,2.9l-8.8,38l-6.4,27.9h18.4
			L488,61.7L488,61.7z"/>
		<path class="st13" d="M577.3,34c-4.8-6-12.9-9-24.4-9h-44L503.8,48h4.9h34.2l10.1,0c7,0.3,11.8,4.1,10.7,8.7
			c-1.1,4.6-7.5,8.3-14.7,8.7l-23.2,0l0,0c-4.2,0.3-8.2,1.3-11.8,2.9c-3.6,1.6-6.8,3.7-9.6,6.5c-2.8,2.8-5.2,5.9-7.1,9.5
			c-1.9,3.6-3.4,7.4-4.3,11.6l-7.2,31.8h18.1l6.8-29.9c0,0,0.3-1.5,0.3-1.5c1-4.2,6.6-7.7,13.1-8.5c0.4-0.1,3.8-0.2,3.8-0.2h22.7
			c0,0,0.3,0,0.4,0c5.8-1.1,11.9-4.4,18.1-9.9c6.4-5.6,10.5-12.7,12.5-21.3C583.5,47.5,582.1,40,577.3,34z"/>
		<path class="st13" d="M670.3,69.3c3.1-14.1,1.7-25.1-4.3-33.1c-6.5-7.5-15-11.2-25.6-11.2c-10.4,0-20.3,3.7-29.8,11.2
			c-9.8,8.2-16.2,19.2-19.4,33.1l-13.1,58.3h18.3l5.4-23.4h0.5h32.4h9.4l-5.4,23.4h18.4L670.3,69.3z M648.9,83.7h-42.3l3.2-14
			c2.7-11.7,14.4-21.2,26.1-21.2c11.7,0,19,9.5,16.3,21.2L648.9,83.7z"/>
	</g>
</g>
</svg>
