<?xml version="1.0" encoding="utf-8"?>
<!-- Generator: Adobe Illustrator 24.2.0, SVG Export Plug-In . SVG Version: 6.00 Build 0)  -->
<svg version="1.1" id="Camada_1" xmlns="http://www.w3.org/2000/svg" xmlns:xlink="http://www.w3.org/1999/xlink" x="0px" y="0px"
	 viewBox="0 0 751.5 363.5" style="enable-background:new 0 0 751.5 363.5;" xml:space="preserve">
<style type="text/css">
	.st0{fill-rule:evenodd;clip-rule:evenodd;fill:#0E3178;}
	.st1{fill-rule:evenodd;clip-rule:evenodd;fill:#C07D2B;}
	.st2{fill:none;stroke:#FECB84;stroke-width:5.0766;stroke-miterlimit:10;}
</style>
<g>
	<polygon class="st0" points="38.7,108.6 60.6,0 62.4,0 102.1,68.5 139.5,0 141.4,0 163.4,108.6 139.5,108.6 130.6,60.6 
		102.4,112.5 100.7,112.5 70.4,59.9 61.1,108.6 	"/>
	<path class="st0" d="M195.2,56c0,9.1,2.7,16.8,8,23c5.4,6.2,11.9,9.3,19.8,9.3c7.9,0,14.5-3.1,19.8-9.2c5.3-6.2,8-13.8,8-23
		c0-9.2-2.7-17-8-23.1c-5.3-6.2-11.9-9.3-19.8-9.3c-7.8,0-14.4,3.1-19.8,9.3C197.8,39.1,195.2,46.8,195.2,56L195.2,56z M169.3,56
		c0-7.8,1.3-15.1,4-21.9c2.7-6.8,6.6-12.9,11.9-18.3c4.9-5.1,10.7-9.1,17.2-11.8C208.9,1.4,215.8,0,223,0c7.2,0,14,1.4,20.6,4.1
		c6.6,2.7,12.4,6.7,17.5,11.9c5.1,5.2,9,11.1,11.6,18c2.7,6.8,4,14.1,4,22c0,6.6-0.9,12.8-2.7,18.6c-1.9,5.8-4.6,11.1-8.2,15.9
		c-5.1,6.8-11.4,12.1-18.9,15.9c-7.5,3.8-15.4,5.7-23.8,5.7c-7.1,0-13.9-1.4-20.4-4.1c-6.5-2.7-12.3-6.7-17.3-11.9
		c-5.2-5.4-9.2-11.4-11.9-18.2C170.6,71.1,169.3,63.8,169.3,56z"/>
	<path class="st0" d="M315.1,3.4v57.8c0,9.3,1.7,16.3,5.1,20.9c3.4,4.6,8.6,6.9,15.5,6.9c6.7,0,11.8-2.2,15.3-6.5
		c3.5-4.3,5.3-10.6,5.3-18.8V3.4h22.4v60.4c0,15.2-3.9,27.1-11.7,35.5c-7.8,8.5-18.6,12.7-32.5,12.7c-14,0-24.9-4.2-32.6-12.6
		c-7.8-8.4-11.6-20.3-11.6-35.5V3.4H315.1z"/>
	<polygon class="st0" points="394.8,108.6 394.8,0 397.2,0 462.7,61.4 462.7,3.4 485.9,3.4 485.9,112.7 483.7,112.7 418,51.3 
		418,108.6 	"/>
	<polygon class="st0" points="532.6,108.6 532.6,25.4 499.1,25.4 499.1,3.4 591,3.4 591,25.4 557.7,25.4 557.7,108.6 	"/>
	<polygon class="st0" points="33.4,255.4 33.4,154.8 57.1,154.8 57.1,191.7 95.9,191.7 95.9,154.8 119.5,154.8 119.5,255.4 
		95.9,255.4 95.9,213.2 57.1,213.2 57.1,255.4 	"/>
	<polygon class="st0" points="138.8,255.4 138.8,154.8 200.8,154.8 200.8,175.5 162.1,175.5 162.1,193.7 195.2,193.7 195.2,214.3 
		162.1,214.3 162.1,234.2 201.3,234.2 201.3,255.4 	"/>
	<path class="st0" d="M243,173.1h-4V201h5.1c6.1,0,10.7-1.2,13.9-3.7c3.2-2.4,4.8-6,4.8-10.5c0-4.8-1.5-8.3-4.6-10.4
		C255,174.2,250,173.1,243,173.1L243,173.1z M215.8,255.4V154.8h25.9c8.3,0,14.7,0.5,19.3,1.6c4.6,1.1,8.6,2.9,12.1,5.4
		c3.7,2.7,6.7,6,8.7,9.9c2.1,4,3.1,8.1,3.1,12.5c0,6.3-1.6,11.9-4.8,16.6c-3.2,4.8-7.9,8.5-13.9,11.2l30.7,43.2h-27.4l-26.9-39.5
		h-3.4v39.5H215.8z"/>
	<polygon class="st0" points="296.9,255.4 317.8,151.5 319.5,151.5 357.5,217 393.3,151.5 395.1,151.5 416.1,255.4 393.3,255.4 
		384.8,209.4 357.8,259.1 356.1,259.1 327.2,208.7 318.3,255.4 	"/>
	<path class="st0" d="M443.5,205.1c0,8.7,2.6,16.1,7.7,22c5.1,5.9,11.4,8.9,18.9,8.9c7.5,0,13.9-2.9,18.9-8.8
		c5.1-5.9,7.6-13.2,7.6-22c0-8.8-2.5-16.2-7.6-22.1c-5.1-5.9-11.4-8.9-18.9-8.9c-7.5,0-13.8,3-18.9,8.9
		C446,188.9,443.5,196.2,443.5,205.1L443.5,205.1z M418.7,205.1c0-7.5,1.3-14.4,3.9-20.9c2.6-6.5,6.3-12.3,11.3-17.5
		c4.7-4.9,10.2-8.7,16.5-11.3c6.2-2.6,12.8-3.9,19.6-3.9c6.8,0,13.4,1.3,19.7,4c6.3,2.6,11.8,6.4,16.7,11.4
		c4.9,4.9,8.6,10.7,11.1,17.2c2.5,6.5,3.8,13.5,3.8,21.1c0,6.3-0.9,12.2-2.6,17.8c-1.8,5.5-4.4,10.6-7.9,15.2
		c-4.9,6.5-10.9,11.6-18.1,15.2c-7.2,3.6-14.7,5.4-22.7,5.4c-6.8,0-13.3-1.3-19.5-4c-6.2-2.6-11.7-6.4-16.6-11.4
		c-5-5.1-8.8-10.9-11.3-17.4C420,219.5,418.7,212.5,418.7,205.1z"/>
	<polygon class="st0" points="533.3,255.4 533.3,151.5 535.6,151.5 598.3,210.2 598.3,154.8 620.4,154.8 620.4,259.2 618.4,259.2 
		555.5,200.5 555.5,255.4 	"/>
	<path class="st1" d="M43.9,275.2l-3.2,7.5h6.5L43.9,275.2L43.9,275.2z M43.9,269.8l9.3,21.1h-2.6l-2.6-6.2h-7.9l-2.6,6.2h-2.6
		L43.9,269.8L43.9,269.8z M67.3,284.7c0-1.4-0.4-2.6-1.2-3.4c-0.8-0.9-1.8-1.3-3.1-1.3c-1.3,0-2.3,0.4-3,1.2
		c-0.7,0.8-1.1,1.9-1.1,3.3c0,1.6,0.4,2.8,1.1,3.7c0.7,0.9,1.7,1.3,3,1.3c1.3,0,2.4-0.4,3.1-1.3C67,287.3,67.3,286.2,67.3,284.7
		L67.3,284.7z M69.4,269.4V291h-2.1v-2.3c-0.5,0.9-1.1,1.6-1.9,2.1c-0.8,0.5-1.7,0.7-2.7,0.7c-1.8,0-3.3-0.6-4.4-1.9
		c-1.1-1.3-1.7-2.9-1.7-5c0-2.1,0.5-3.7,1.6-5c1.1-1.2,2.5-1.9,4.4-1.9c1.1,0,2,0.2,2.8,0.7c0.8,0.5,1.4,1.2,1.9,2.1v-11.2H69.4
		L69.4,269.4z M94.2,291v-7.5c0-1.3-0.3-2.2-0.8-2.9c-0.5-0.6-1.3-0.9-2.4-0.9c-0.6,0-1.1,0.1-1.6,0.4c-0.5,0.2-0.9,0.6-1.3,1
		c-0.2,0.3-0.4,0.7-0.5,1.2c-0.1,0.4-0.2,1.2-0.2,2.2v6.6h-2.1v-7.5c0-1.3-0.3-2.2-0.8-2.9c-0.5-0.6-1.3-0.9-2.4-0.9
		c-0.6,0-1.1,0.1-1.6,0.4c-0.5,0.2-0.9,0.6-1.3,1c-0.2,0.3-0.4,0.7-0.5,1.1c-0.1,0.4-0.2,1.2-0.2,2.2v6.6h-2.1v-12.7h2.1v2
		c0.5-0.8,1.2-1.4,1.9-1.8c0.7-0.4,1.6-0.6,2.5-0.6c1,0,1.9,0.2,2.6,0.7c0.7,0.4,1.3,1.1,1.6,1.9c0.5-0.9,1.2-1.5,1.9-1.9
		c0.7-0.4,1.6-0.6,2.6-0.6c1.4,0,2.5,0.4,3.3,1.2c0.8,0.8,1.2,1.9,1.2,3.3v8.7H94.2L94.2,291z M102.8,272.1c0-0.4,0.2-0.8,0.5-1.1
		c0.3-0.3,0.7-0.5,1.1-0.5c0.4,0,0.8,0.2,1.1,0.5c0.3,0.3,0.5,0.7,0.5,1.1c0,0.4-0.2,0.8-0.5,1.1c-0.3,0.3-0.7,0.5-1.1,0.5
		c-0.4,0-0.8-0.2-1.1-0.5C103,273,102.8,272.6,102.8,272.1L102.8,272.1z M103.3,291v-12.7h2.2V291H103.3L103.3,291z M112.7,291
		v-12.7h2.1v2c0.5-0.8,1.2-1.4,2-1.8c0.8-0.4,1.7-0.6,2.7-0.6c1.5,0,2.7,0.4,3.5,1.2c0.8,0.8,1.3,1.9,1.3,3.3v8.7H122v-7.5
		c0-1.3-0.3-2.2-0.8-2.9c-0.5-0.6-1.4-0.9-2.5-0.9c-0.6,0-1.2,0.1-1.8,0.4c-0.5,0.2-1,0.6-1.3,1c-0.3,0.3-0.5,0.7-0.6,1.1
		c-0.1,0.4-0.2,1.2-0.2,2.2v6.6H112.7L112.7,291z M130.7,272.1c0-0.4,0.2-0.8,0.5-1.1c0.3-0.3,0.7-0.5,1.1-0.5
		c0.4,0,0.8,0.2,1.1,0.5c0.3,0.3,0.5,0.7,0.5,1.1c0,0.4-0.2,0.8-0.5,1.1c-0.3,0.3-0.7,0.5-1.1,0.5c-0.4,0-0.8-0.2-1.1-0.5
		C130.9,273,130.7,272.6,130.7,272.1L130.7,272.1z M131.3,291v-12.7h2.2V291H131.3L131.3,291z M139.3,288.8l1.9-1.2
		c0.4,0.7,0.8,1.2,1.3,1.5c0.5,0.3,1.2,0.5,1.9,0.5c0.7,0,1.3-0.2,1.7-0.5c0.4-0.4,0.7-0.8,0.7-1.4c0-0.4-0.2-0.8-0.5-1.1
		c-0.3-0.3-0.8-0.6-1.6-0.8l-0.4-0.1c-3.1-1.1-4.6-2.4-4.6-4c0-1.1,0.4-2.1,1.2-2.8c0.8-0.7,1.9-1.1,3.2-1.1c1.1,0,2,0.2,2.8,0.7
		c0.8,0.4,1.4,1.1,1.7,1.9l-1.8,1.1c-0.3-0.6-0.6-1-1.1-1.3c-0.5-0.3-1.1-0.5-1.8-0.5c-0.6,0-1.2,0.2-1.6,0.5
		c-0.4,0.4-0.6,0.8-0.6,1.4c0,0.8,0.8,1.4,2.5,2c0.3,0.1,0.6,0.2,0.8,0.2c1.4,0.4,2.3,1,2.9,1.5c0.5,0.6,0.8,1.3,0.8,2.3
		c0,1.2-0.4,2.2-1.3,2.9c-0.9,0.7-2,1.1-3.4,1.1c-1.2,0-2.2-0.2-3-0.7C140.5,290.4,139.8,289.7,139.3,288.8L139.3,288.8z M155.2,280
		h-2.3v-1.8h2.3v-5.1h2.2v5.1h2.3v1.8h-2.3V291h-2.2V280L155.2,280z M164.8,291v-12.7h1.9v2.7c0.6-1.1,1.2-1.9,1.9-2.4
		c0.7-0.5,1.5-0.7,2.4-0.7c0.3,0,0.5,0,0.8,0.1c0.2,0,0.5,0.1,0.7,0.2l-0.7,2c-0.3-0.1-0.5-0.1-0.7-0.2c-0.2,0-0.4-0.1-0.6-0.1
		c-1.1,0-2,0.4-2.6,1.2c-0.6,0.8-0.9,2.1-0.9,3.7v6.2H164.8L164.8,291z M187.1,284.7c0-1.4-0.4-2.6-1.2-3.5
		c-0.8-0.9-1.8-1.3-3.1-1.3c-1.3,0-2.3,0.4-3.1,1.2c-0.7,0.8-1.1,1.9-1.1,3.4c0,1.5,0.4,2.7,1.1,3.6c0.7,0.8,1.8,1.3,3.1,1.3
		c1.3,0,2.3-0.4,3.1-1.2C186.7,287.3,187.1,286.2,187.1,284.7L187.1,284.7z M189.2,278.3V291h-2.1v-2.3c-0.5,0.9-1.2,1.6-2,2.1
		c-0.8,0.5-1.7,0.7-2.7,0.7c-1.8,0-3.3-0.6-4.4-1.9c-1.1-1.3-1.7-2.9-1.7-5c0-2.1,0.5-3.8,1.6-5c1.1-1.2,2.5-1.9,4.4-1.9
		c1.1,0,2,0.2,2.8,0.7c0.8,0.5,1.4,1.2,1.9,2.1v-2.4H189.2L189.2,278.3z M205.9,284.7c0-1.4-0.4-2.6-1.2-3.4
		c-0.8-0.9-1.8-1.3-3.1-1.3c-1.3,0-2.3,0.4-3,1.2c-0.7,0.8-1.1,1.9-1.1,3.3c0,1.6,0.4,2.8,1.1,3.7c0.7,0.9,1.7,1.3,3,1.3
		c1.3,0,2.4-0.4,3.1-1.3C205.5,287.3,205.9,286.2,205.9,284.7L205.9,284.7z M208,269.4V291h-2.1v-2.3c-0.5,0.9-1.1,1.6-1.9,2.1
		c-0.8,0.5-1.7,0.7-2.7,0.7c-1.8,0-3.3-0.6-4.4-1.9c-1.1-1.3-1.7-2.9-1.7-5c0-2.1,0.5-3.7,1.6-5c1.1-1.2,2.5-1.9,4.4-1.9
		c1.1,0,2,0.2,2.8,0.7c0.8,0.5,1.4,1.2,1.9,2.1v-11.2H208L208,269.4z M216.3,284.7c0,1.3,0.5,2.5,1.3,3.4c0.9,0.9,2,1.4,3.3,1.4
		c1.3,0,2.4-0.5,3.2-1.4c0.9-0.9,1.3-2.1,1.3-3.4c0-1.3-0.4-2.5-1.3-3.4c-0.9-0.9-2-1.4-3.2-1.4c-1.3,0-2.4,0.5-3.3,1.4
		C216.7,282.2,216.3,283.3,216.3,284.7L216.3,284.7z M214,284.6c0-0.9,0.2-1.8,0.5-2.6c0.3-0.8,0.8-1.6,1.5-2.2
		c0.7-0.6,1.4-1.1,2.2-1.5c0.8-0.3,1.7-0.5,2.7-0.5c0.9,0,1.8,0.2,2.6,0.5c0.8,0.3,1.6,0.8,2.3,1.5c0.7,0.6,1.2,1.4,1.5,2.2
		c0.3,0.8,0.5,1.7,0.5,2.6c0,0.9-0.2,1.8-0.5,2.6c-0.3,0.8-0.8,1.6-1.5,2.2c-0.7,0.7-1.4,1.2-2.3,1.5c-0.8,0.4-1.7,0.5-2.6,0.5
		c-0.9,0-1.8-0.2-2.7-0.5c-0.8-0.3-1.6-0.8-2.2-1.5c-0.7-0.7-1.2-1.4-1.5-2.2C214.2,286.5,214,285.6,214,284.6L214,284.6z
		 M233.8,291v-12.7h1.9v2.7c0.6-1.1,1.2-1.9,1.9-2.4c0.7-0.5,1.5-0.7,2.4-0.7c0.3,0,0.5,0,0.8,0.1c0.2,0,0.5,0.1,0.7,0.2l-0.7,2
		c-0.3-0.1-0.5-0.1-0.7-0.2c-0.2,0-0.4-0.1-0.6-0.1c-1.1,0-2,0.4-2.6,1.2c-0.6,0.8-0.9,2.1-0.9,3.7v6.2H233.8L233.8,291z
		 M256.1,284.7c0-1.4-0.4-2.6-1.2-3.5c-0.8-0.9-1.8-1.3-3.1-1.3c-1.3,0-2.3,0.4-3.1,1.2c-0.7,0.8-1.1,1.9-1.1,3.4
		c0,1.5,0.4,2.7,1.1,3.6c0.7,0.8,1.8,1.3,3.1,1.3c1.3,0,2.3-0.4,3.1-1.2C255.7,287.3,256.1,286.2,256.1,284.7L256.1,284.7z
		 M258.2,278.3V291h-2.1v-2.3c-0.5,0.9-1.2,1.6-2,2.1c-0.8,0.5-1.7,0.7-2.7,0.7c-1.8,0-3.3-0.6-4.4-1.9c-1.1-1.3-1.7-2.9-1.7-5
		c0-2.1,0.5-3.8,1.6-5c1.1-1.2,2.5-1.9,4.4-1.9c1.1,0,2,0.2,2.8,0.7c0.8,0.5,1.4,1.2,1.9,2.1v-2.4H258.2L258.2,278.3z M283.3,284.7
		c0-1.4-0.4-2.6-1.2-3.4c-0.8-0.9-1.8-1.3-3.1-1.3c-1.3,0-2.3,0.4-3,1.2c-0.7,0.8-1.1,1.9-1.1,3.3c0,1.6,0.4,2.8,1.1,3.7
		c0.7,0.9,1.7,1.3,3,1.3c1.3,0,2.4-0.4,3.1-1.3C282.9,287.3,283.3,286.2,283.3,284.7L283.3,284.7z M285.4,269.4V291h-2.1v-2.3
		c-0.5,0.9-1.1,1.6-1.9,2.1c-0.8,0.5-1.7,0.7-2.7,0.7c-1.8,0-3.3-0.6-4.4-1.9c-1.1-1.3-1.7-2.9-1.7-5c0-2.1,0.5-3.7,1.6-5
		c1.1-1.2,2.5-1.9,4.4-1.9c1.1,0,2,0.2,2.8,0.7c0.8,0.5,1.4,1.2,1.9,2.1v-11.2H285.4L285.4,269.4z M301.5,283.2
		c-0.1-1.1-0.4-2-1.1-2.6c-0.7-0.6-1.6-0.9-2.8-0.9c-1.1,0-1.9,0.3-2.6,1c-0.7,0.6-1.1,1.5-1.2,2.5H301.5L301.5,283.2z M303.8,284.9
		h-10.1v0.2c0,1.4,0.4,2.5,1.2,3.3c0.8,0.8,1.8,1.3,3,1.3c0.8,0,1.6-0.2,2.3-0.7c0.7-0.5,1.3-1.1,1.8-2.1l1.7,1.1
		c-0.6,1.1-1.5,2-2.4,2.6c-1,0.6-2.1,0.9-3.4,0.9c-1.9,0-3.5-0.6-4.7-1.9c-1.2-1.3-1.8-3-1.8-5c0-2,0.6-3.6,1.8-4.9
		c1.2-1.3,2.7-1.9,4.6-1.9c1.9,0,3.4,0.6,4.5,1.8c1.1,1.2,1.6,2.9,1.6,4.9V284.9L303.8,284.9z M320.1,284.7c0,1.5,0.4,2.6,1.1,3.5
		c0.8,0.8,1.8,1.3,3.1,1.3c1.3,0,2.3-0.4,3.1-1.3c0.7-0.9,1.1-2.1,1.1-3.7c0-1.4-0.4-2.5-1.1-3.3c-0.7-0.8-1.7-1.2-3-1.2
		c-1.3,0-2.3,0.4-3.1,1.3C320.5,282.1,320.1,283.3,320.1,284.7L320.1,284.7z M318.1,269.4h2.2v11.2c0.5-0.9,1.1-1.7,1.9-2.1
		c0.8-0.5,1.7-0.7,2.7-0.7c1.8,0,3.3,0.6,4.4,1.9c1.1,1.2,1.6,2.9,1.6,5c0,2.1-0.6,3.7-1.7,5c-1.1,1.3-2.6,1.9-4.4,1.9
		c-1,0-1.9-0.2-2.7-0.7c-0.8-0.5-1.5-1.2-2-2.1v2.3h-2.1V269.4L318.1,269.4z M345.9,283.2c-0.1-1.1-0.4-2-1.1-2.6
		c-0.7-0.6-1.6-0.9-2.8-0.9c-1.1,0-1.9,0.3-2.6,1c-0.7,0.6-1.1,1.5-1.2,2.5H345.9L345.9,283.2z M348.3,284.9h-10.1v0.2
		c0,1.4,0.4,2.5,1.2,3.3s1.8,1.3,3,1.3c0.8,0,1.6-0.2,2.3-0.7c0.7-0.5,1.3-1.1,1.8-2.1l1.7,1.1c-0.6,1.1-1.5,2-2.4,2.6
		c-1,0.6-2.1,0.9-3.4,0.9c-1.9,0-3.5-0.6-4.7-1.9c-1.2-1.3-1.8-3-1.8-5c0-2,0.6-3.6,1.8-4.9c1.2-1.3,2.7-1.9,4.6-1.9
		c1.9,0,3.4,0.6,4.5,1.8c1.1,1.2,1.6,2.9,1.6,4.9V284.9L348.3,284.9z M354.2,291v-12.7h2.1v2c0.5-0.8,1.2-1.4,2-1.8
		c0.8-0.4,1.7-0.6,2.7-0.6c1.5,0,2.7,0.4,3.5,1.2c0.8,0.8,1.3,1.9,1.3,3.3v8.7h-2.2v-7.5c0-1.3-0.3-2.2-0.8-2.9
		c-0.5-0.6-1.4-0.9-2.5-0.9c-0.6,0-1.2,0.1-1.8,0.4c-0.5,0.2-1,0.6-1.3,1c-0.3,0.3-0.5,0.7-0.6,1.1c-0.1,0.4-0.2,1.2-0.2,2.2v6.6
		H354.2L354.2,291z M381.6,283.2c-0.1-1.1-0.4-2-1.1-2.6c-0.7-0.6-1.6-0.9-2.8-0.9c-1.1,0-1.9,0.3-2.6,1c-0.7,0.6-1.1,1.5-1.2,2.5
		H381.6L381.6,283.2z M384,284.9h-10.1v0.2c0,1.4,0.4,2.5,1.2,3.3s1.8,1.3,3,1.3c0.8,0,1.6-0.2,2.3-0.7c0.7-0.5,1.3-1.1,1.8-2.1
		l1.7,1.1c-0.6,1.1-1.5,2-2.4,2.6c-1,0.6-2.1,0.9-3.4,0.9c-1.9,0-3.5-0.6-4.7-1.9c-1.2-1.3-1.8-3-1.8-5c0-2,0.6-3.6,1.8-4.9
		c1.2-1.3,2.7-1.9,4.6-1.9c1.9,0,3.4,0.6,4.5,1.8c1.1,1.2,1.6,2.9,1.6,4.9V284.9L384,284.9z M390.4,291V280H388v-1.8h2.4v-3.7
		c0-2.1,0.3-3.5,0.8-4.3c0.5-0.7,1.5-1.1,2.9-1.1c0.3,0,0.7,0,1,0.1c0.3,0,0.6,0.1,0.9,0.2v2.2c-0.3-0.2-0.6-0.3-0.8-0.4
		c-0.3-0.1-0.6-0.1-0.9-0.1c-0.6,0-1.1,0.2-1.3,0.6c-0.2,0.4-0.4,1.4-0.4,3v3.4h3.4v1.8h-3.3V291H390.4L390.4,291z M400.8,291v-12.7
		h2.2V291H400.8L400.8,291z M399.9,276.3l2.8-4.8h2.8l-4,4.8H399.9L399.9,276.3z M419.9,288v2.5c-0.6,0.3-1.2,0.6-1.9,0.8
		c-0.7,0.2-1.5,0.3-2.3,0.3c-2,0-3.5-0.6-4.7-1.9c-1.2-1.2-1.8-2.9-1.8-4.9c0-2,0.6-3.7,1.9-5c1.2-1.3,2.8-1.9,4.8-1.9
		c0.7,0,1.4,0.1,2.1,0.2c0.7,0.1,1.3,0.4,1.9,0.7v2.3c-0.6-0.4-1.1-0.6-1.7-0.8c-0.6-0.2-1.2-0.3-1.8-0.3c-1.4,0-2.6,0.4-3.4,1.3
		c-0.9,0.9-1.3,2.1-1.3,3.6c0,1.3,0.4,2.4,1.3,3.3c0.9,0.9,2,1.3,3.3,1.3c0.7,0,1.3-0.1,1.9-0.4C418.5,288.8,419.2,288.5,419.9,288
		L419.9,288z M425.1,272.1c0-0.4,0.2-0.8,0.5-1.1c0.3-0.3,0.7-0.5,1.1-0.5c0.4,0,0.8,0.2,1.1,0.5c0.3,0.3,0.5,0.7,0.5,1.1
		c0,0.4-0.2,0.8-0.5,1.1c-0.3,0.3-0.7,0.5-1.1,0.5c-0.4,0-0.8-0.2-1.1-0.5C425.3,273,425.1,272.6,425.1,272.1L425.1,272.1z
		 M425.6,291v-12.7h2.2V291H425.6L425.6,291z M436.3,284.7c0,1.3,0.5,2.5,1.3,3.4c0.9,0.9,2,1.4,3.3,1.4c1.3,0,2.4-0.5,3.2-1.4
		c0.9-0.9,1.3-2.1,1.3-3.4c0-1.3-0.4-2.5-1.3-3.4c-0.9-0.9-2-1.4-3.2-1.4c-1.3,0-2.4,0.5-3.3,1.4
		C436.7,282.2,436.3,283.3,436.3,284.7L436.3,284.7z M434,284.6c0-0.9,0.2-1.8,0.5-2.6c0.3-0.8,0.8-1.6,1.5-2.2
		c0.7-0.6,1.4-1.1,2.2-1.5c0.8-0.3,1.7-0.5,2.7-0.5c0.9,0,1.8,0.2,2.6,0.5c0.8,0.3,1.6,0.8,2.3,1.5c0.7,0.6,1.2,1.4,1.5,2.2
		c0.3,0.8,0.5,1.7,0.5,2.6c0,0.9-0.2,1.8-0.5,2.6c-0.3,0.8-0.8,1.6-1.5,2.2c-0.7,0.7-1.4,1.2-2.3,1.5c-0.8,0.4-1.7,0.5-2.6,0.5
		c-0.9,0-1.8-0.2-2.7-0.5c-0.8-0.3-1.6-0.8-2.2-1.5c-0.7-0.7-1.2-1.4-1.5-2.2C434.1,286.5,434,285.6,434,284.6L434,284.6z
		 M452.4,288.8l1.9-1.2c0.4,0.7,0.8,1.2,1.3,1.5c0.5,0.3,1.2,0.5,1.9,0.5c0.7,0,1.3-0.2,1.7-0.5c0.4-0.4,0.7-0.8,0.7-1.4
		c0-0.4-0.2-0.8-0.5-1.1c-0.3-0.3-0.8-0.6-1.6-0.8l-0.4-0.1c-3.1-1.1-4.6-2.4-4.6-4c0-1.1,0.4-2.1,1.2-2.8c0.8-0.7,1.9-1.1,3.2-1.1
		c1.1,0,2,0.2,2.8,0.7c0.8,0.4,1.4,1.1,1.7,1.9l-1.8,1.1c-0.3-0.6-0.6-1-1.1-1.3c-0.5-0.3-1.1-0.5-1.8-0.5c-0.6,0-1.2,0.2-1.6,0.5
		c-0.4,0.4-0.6,0.8-0.6,1.4c0,0.8,0.8,1.4,2.5,2c0.3,0.1,0.6,0.2,0.8,0.2c1.4,0.4,2.3,1,2.9,1.5c0.5,0.6,0.8,1.3,0.8,2.3
		c0,1.2-0.4,2.2-1.3,2.9c-0.9,0.7-2,1.1-3.4,1.1c-1.2,0-2.2-0.2-3-0.7C453.6,290.4,452.9,289.7,452.4,288.8z"/>
	<polygon class="st0" points="617.3,363.5 572.9,285.2 483.1,286.1 525.8,237.4 518.8,265.4 584.7,264.8 617.3,322.3 649.8,264.8 
		715.7,265.4 708,233.5 751.4,286.1 661.6,285.2 	"/>
	<polygon class="st1" points="584.9,144.8 0,129.6 483.1,123.7 573.1,124.4 617.3,46.2 661.6,124.5 751.5,123.7 706.2,176.7 
		715.8,144.3 649.9,144.9 617.3,87.5 	"/>
</g>
<rect x="718.5" y="189.1" class="st2" width="0" height="0"/>
</svg>
